<?xml version="1.0" standalone="no"?>
<!DOCTYPE svg PUBLIC "-//W3C//DTD SVG 20010904//EN"
 "http://www.w3.org/TR/2001/REC-SVG-20010904/DTD/svg10.dtd">
<svg version="1.0" xmlns="http://www.w3.org/2000/svg"
 width="500.000000pt" height="500.000000pt" viewBox="0 0 500.000000 500.000000"
 preserveAspectRatio="xMidYMid meet">

<g transform="translate(0.000000,500.000000) scale(0.100000,-0.100000)"
fill="#000000" stroke="none">
<path d="M2586 3084 c-10 -27 -7 -918 4 -934 25 -39 30 28 30 467 0 248 -3
458 -6 467 -3 9 -10 16 -14 16 -4 0 -11 -7 -14 -16z"/>
<path d="M1271 2748 c-59 -40 -76 -72 -76 -143 0 -68 15 -99 68 -139 33 -24
125 -33 167 -16 39 16 80 65 80 96 0 20 -5 24 -30 24 -23 0 -33 -6 -40 -24
-19 -51 -74 -54 -100 -6 -15 29 -12 113 6 138 22 32 71 30 84 -4 8 -21 15 -25
42 -22 32 3 33 4 33 53 l0 50 -45 3 c-25 1 -70 5 -100 8 -47 5 -60 2 -89 -18z"/>
<path d="M1644 2751 c-109 -50 -124 -204 -26 -279 32 -25 43 -27 123 -27 95 0
120 11 163 69 30 39 30 143 0 183 -49 68 -173 93 -260 54z m136 -70 c5 -11 10
-47 10 -80 0 -48 -4 -65 -20 -81 -11 -11 -24 -20 -30 -20 -5 0 -19 9 -30 20
-16 16 -20 33 -20 81 0 76 12 99 50 99 19 0 33 -7 40 -19z"/>
<path d="M380 2726 c0 -21 6 -36 15 -40 12 -4 15 -23 15 -81 0 -58 -3 -77 -15
-81 -9 -4 -15 -19 -15 -40 l0 -34 95 0 95 0 0 34 c0 21 -6 36 -15 40 -12 4
-15 23 -15 81 0 58 3 77 15 81 9 4 15 19 15 40 l0 34 -95 0 -95 0 0 -34z"/>
<path d="M600 2701 c0 -59 0 -60 27 -58 19 2 29 9 32 22 4 21 18 35 39 35 19
0 17 -169 -3 -176 -9 -4 -15 -19 -15 -40 l0 -34 95 0 95 0 0 35 c0 24 -5 35
-15 35 -20 0 -27 33 -23 110 3 57 5 65 23 65 13 0 21 -8 23 -22 3 -19 10 -23
38 -23 l34 0 0 55 0 55 -175 0 -175 0 0 -59z"/>
<path d="M970 2727 c0 -21 7 -36 20 -45 17 -10 20 -23 20 -77 0 -54 -3 -67
-20 -77 -13 -9 -20 -24 -20 -45 l0 -33 95 0 95 0 0 33 c0 21 -7 36 -20 45 -17
10 -20 23 -20 77 0 54 3 67 20 77 13 9 20 24 20 45 l0 33 -95 0 -95 0 0 -33z"/>
<path d="M1960 2725 c0 -23 5 -35 14 -35 19 0 26 -22 26 -85 0 -63 -7 -85 -26
-85 -9 0 -14 -12 -14 -35 l0 -35 70 0 69 0 -4 32 c-2 17 -11 36 -20 40 -11 7
-15 25 -15 67 0 32 3 61 7 65 4 3 23 -40 43 -96 l37 -103 40 -3 40 -3 32 103
c18 57 37 107 42 113 5 5 9 -20 9 -63 0 -55 -4 -74 -15 -78 -9 -4 -15 -19 -15
-40 l0 -34 95 0 95 0 0 34 c0 25 -5 35 -20 39 -18 5 -20 14 -20 82 0 68 2 77
20 82 15 4 20 14 20 40 l0 34 -102 -3 -103 -3 -20 -67 c-11 -38 -23 -68 -26
-68 -4 0 -17 30 -30 68 l-24 67 -102 3 -103 3 0 -36z"/>
<path d="M3483 2739 c-26 -9 -39 -45 -23 -64 18 -21 44 -27 74 -16 38 15 37
65 -2 79 -15 5 -37 6 -49 1z m42 -39 c0 -16 -6 -26 -17 -28 -14 -3 -18 3 -18
28 0 25 4 31 18 28 11 -2 17 -12 17 -28z"/>
<path d="M3630 2733 c0 -7 7 -10 16 -6 14 5 16 0 12 -30 -4 -35 -3 -37 26 -37
23 0 27 3 18 12 -7 7 -12 23 -12 36 0 19 4 22 21 17 16 -5 20 -3 17 6 -6 18
-98 20 -98 2z"/>
<path d="M3767 2743 c-12 -3 -15 -11 -11 -29 4 -14 1 -31 -6 -39 -11 -13 -6
-15 34 -15 26 0 46 5 46 11 0 6 -9 8 -20 4 -17 -5 -20 -2 -20 25 0 27 3 32 20
27 13 -3 20 0 20 9 0 14 -26 17 -63 7z"/>
<path d="M3866 2734 c-23 -23 -20 -51 8 -69 19 -13 29 -14 45 -5 12 6 21 16
21 22 0 9 -3 9 -12 0 -31 -31 -58 6 -33 44 13 21 13 24 1 24 -8 0 -22 -7 -30
-16z"/>
<path d="M3925 2741 c-3 -5 -1 -12 5 -16 5 -3 10 1 10 9 0 18 -6 21 -15 7z"/>
<path d="M3965 2740 c-3 -5 -1 -11 4 -14 6 -4 6 -18 1 -36 -7 -26 -6 -30 10
-30 13 0 17 5 13 20 -3 11 0 20 5 20 6 0 16 -9 22 -20 6 -11 20 -20 30 -20 17
0 20 7 20 45 0 34 -3 43 -14 39 -8 -3 -12 -14 -9 -27 l5 -22 -21 23 c-21 24
-57 36 -66 22z"/>
<path d="M4105 2718 c4 -17 2 -35 -5 -43 -10 -13 -8 -15 16 -15 27 0 29 3 29
39 0 33 -4 40 -23 44 -21 4 -22 2 -17 -25z"/>
<path d="M4175 2726 c-28 -42 10 -85 59 -66 34 12 33 19 -1 17 -23 -2 -29 3
-31 22 -4 27 16 45 34 30 8 -6 14 -6 18 -1 5 9 -24 22 -51 22 -7 0 -19 -11
-28 -24z"/>
<path d="M4298 2739 c-11 -6 -18 -22 -18 -40 0 -23 6 -32 26 -39 58 -22 111
40 62 74 -26 18 -46 20 -70 5z m55 -28 c6 -26 -7 -45 -27 -38 -19 7 -21 38 -4
55 14 14 24 8 31 -17z"/>
<path d="M2855 2700 c0 -33 3 -40 20 -40 17 0 20 7 20 40 0 33 -3 40 -20 40
-17 0 -20 -7 -20 -40z"/>
<path d="M2925 2700 c0 -24 4 -40 11 -40 7 0 10 8 7 20 -3 11 0 20 6 20 6 0
16 -9 23 -20 22 -35 45 -25 50 20 2 29 0 40 -10 40 -9 0 -11 -7 -7 -20 4 -11
2 -20 -4 -20 -6 0 -16 9 -23 20 -7 11 -22 20 -33 20 -17 0 -20 -6 -20 -40z"/>
<path d="M3052 2718 c2 -15 11 -24 26 -26 12 -2 22 -8 22 -14 0 -6 -12 -8 -30
-4 -17 3 -30 1 -30 -4 0 -6 20 -10 45 -10 37 0 45 3 45 19 0 12 -9 21 -26 25
-17 5 -24 12 -20 21 4 10 -1 15 -15 15 -15 0 -20 -5 -17 -22z"/>
<path d="M3105 2730 c3 -5 10 -10 16 -10 5 0 9 5 9 10 0 6 -7 10 -16 10 -8 0
-12 -4 -9 -10z"/>
<path d="M3150 2730 c0 -5 7 -7 15 -4 20 8 31 -24 16 -47 -10 -17 -8 -19 21
-19 25 0 29 3 20 12 -15 15 -16 45 -1 54 6 3 15 0 20 -7 7 -11 9 -10 9 4 0 14
-9 17 -50 17 -27 0 -50 -4 -50 -10z"/>
<path d="M3272 2715 c8 -19 8 -28 -2 -40 -11 -13 -8 -15 16 -15 27 0 29 3 29
40 0 37 -2 40 -27 40 -26 0 -27 -2 -16 -25z"/>
<path d="M3340 2730 c0 -5 7 -7 16 -3 14 5 16 0 12 -30 -3 -32 -1 -37 17 -37
18 0 20 5 17 37 -4 30 -2 35 11 30 9 -3 19 -2 22 3 4 6 -15 10 -44 10 -28 0
-51 -4 -51 -10z"/>
<path d="M4465 2700 l0 -41 44 3 c29 2 48 9 55 21 18 29 -4 52 -55 55 l-44 3
0 -41z m63 3 c-4 -39 -28 -42 -28 -4 0 21 5 31 16 31 11 0 14 -8 12 -27z"/>
<path d="M4595 2700 c0 -40 0 -40 37 -40 21 0 38 5 38 11 0 6 -9 8 -20 4 -17
-5 -20 -2 -20 25 0 27 3 32 20 27 11 -3 20 -1 20 4 0 5 -17 9 -38 9 -37 0 -37
0 -37 -40z"/>
<path d="M2680 2572 c0 -4 5 -13 12 -20 9 -9 9 -18 0 -37 -11 -23 -10 -25 14
-25 23 0 25 3 20 25 -4 14 -2 34 4 45 10 18 8 20 -20 20 -16 0 -30 -4 -30 -8z"/>
<path d="M2765 2535 c0 -30 4 -45 13 -45 8 0 10 8 6 25 -3 14 -2 25 3 25 5 0
16 -11 23 -25 19 -36 50 -33 50 4 0 16 3 36 6 45 4 11 1 16 -11 16 -12 0 -15
-5 -10 -19 9 -30 -11 -34 -29 -6 -9 14 -24 25 -34 25 -14 0 -17 -9 -17 -45z"/>
<path d="M2889 2559 c-8 -16 -8 -28 0 -45 9 -20 18 -24 51 -24 22 0 40 4 40 9
0 5 3 16 6 25 4 12 0 16 -15 16 -15 0 -21 -6 -21 -21 0 -12 -5 -19 -12 -16 -7
2 -13 17 -13 33 0 26 3 29 28 26 15 -1 27 2 27 8 0 5 -18 10 -40 10 -30 0 -42
-5 -51 -21z"/>
<path d="M3015 2535 l0 -45 43 0 c32 0 42 4 42 16 0 13 -3 14 -15 4 -23 -19
-38 -2 -32 36 5 30 3 34 -16 34 -19 0 -22 -5 -22 -45z"/>
<path d="M3125 2535 l0 -45 37 0 c20 0 40 5 44 11 4 7 -2 9 -17 7 -20 -2 -25
2 -27 26 -3 25 -1 28 17 23 12 -3 22 1 25 9 4 11 -5 14 -37 14 l-42 0 0 -45z"/>
<path d="M3226 2565 c-3 -9 4 -21 19 -31 33 -22 32 -36 -2 -28 -22 5 -25 4
-17 -5 14 -15 76 -10 81 6 3 7 -10 21 -27 32 -30 18 -28 37 3 25 8 -3 18 -1
22 5 4 7 -8 11 -33 11 -26 0 -42 -5 -46 -15z"/>
<path d="M3370 2572 c0 -5 9 -17 19 -26 11 -10 17 -25 14 -37 -4 -14 0 -19 16
-19 24 0 27 18 7 45 -8 11 -12 25 -9 32 3 9 -4 13 -21 13 -14 0 -26 -4 -26 -8z"/>
<path d="M3440 2564 c0 -9 5 -14 12 -12 18 6 21 28 4 28 -9 0 -16 -7 -16 -16z"/>
<path d="M3542 2568 c-16 -16 -15 -53 2 -67 19 -16 68 -10 74 9 5 13 3 13 -11
2 -21 -18 -37 -7 -37 23 0 29 16 41 35 25 12 -10 15 -9 15 4 0 19 -59 23 -78
4z"/>
<path d="M3650 2561 c-19 -36 6 -71 51 -71 30 0 49 17 49 45 0 30 -19 45 -57
45 -22 0 -36 -6 -43 -19z m68 -17 c3 -25 -13 -48 -27 -40 -12 8 -15 49 -4 60
11 11 28 1 31 -20z"/>
<path d="M3780 2565 c7 -9 9 -26 5 -45 -5 -23 -3 -30 9 -30 12 0 14 7 10 30
-4 17 -3 30 0 30 4 0 12 -13 17 -30 6 -16 15 -30 19 -30 13 0 24 42 13 49 -5
3 -12 14 -16 24 -4 11 -17 17 -38 17 -26 0 -30 -2 -19 -15z"/>
<path d="M3866 2565 c-3 -9 0 -15 10 -15 12 0 14 -7 9 -30 -6 -27 -4 -30 17
-30 21 0 23 5 23 45 0 42 -2 45 -26 45 -15 0 -29 -7 -33 -15z"/>
<path d="M3945 2535 c0 -42 2 -45 27 -45 25 0 26 2 17 32 -11 41 -12 38 7 38
10 0 14 -6 10 -15 -4 -10 1 -15 15 -15 15 0 20 5 17 23 -3 18 -10 22 -48 25
l-45 3 0 -46z"/>
<path d="M4066 2548 c9 -54 12 -58 44 -58 32 0 35 4 44 58 4 24 2 32 -9 32
-10 0 -13 -8 -9 -27 5 -33 -9 -59 -26 -48 -8 5 -10 20 -7 41 5 31 3 34 -18 34
-22 0 -24 -3 -19 -32z"/>
<path d="M4170 2565 c0 -8 5 -15 10 -15 6 0 10 5 10 10 0 6 5 10 11 10 6 0 9
-15 7 -37 -3 -33 0 -38 20 -41 22 -3 23 -1 17 27 -8 38 1 57 21 40 11 -9 14
-8 14 5 0 13 -11 16 -55 16 -42 0 -55 -3 -55 -15z"/>
<path d="M4313 2567 c3 -7 -1 -24 -9 -38 -17 -31 -17 -39 0 -39 8 0 14 11 14
25 0 14 3 29 6 33 11 10 26 -21 20 -40 -4 -14 1 -18 21 -18 22 0 26 3 20 18
-4 9 -10 29 -13 45 -3 22 -9 27 -34 27 -21 0 -29 -4 -25 -13z"/>
<path d="M4422 2571 c-18 -11 -11 -61 9 -74 18 -11 69 -2 69 13 0 6 -9 5 -20
-2 -17 -11 -22 -10 -30 2 -24 38 3 76 35 50 12 -10 15 -9 15 4 0 11 -9 16 -32
16 -18 0 -39 -4 -46 -9z"/>
<path d="M4525 2535 c0 -38 3 -45 20 -45 17 0 20 7 20 45 0 38 -3 45 -20 45
-17 0 -20 -7 -20 -45z"/>
<path d="M4600 2561 c-5 -11 -10 -24 -10 -30 0 -19 32 -41 59 -41 32 0 51 16
51 45 0 30 -19 45 -57 45 -22 0 -36 -6 -43 -19z m65 -26 c0 -43 -29 -40 -33 3
-3 28 0 33 15 30 13 -2 18 -12 18 -33z"/>
<path d="M4725 2535 c0 -31 4 -45 14 -45 9 0 11 8 7 25 -8 32 7 32 28 -1 25
-38 50 -27 57 24 5 36 3 42 -14 42 -14 0 -17 -5 -12 -20 4 -11 2 -20 -4 -20
-6 0 -15 9 -21 20 -6 11 -21 20 -33 20 -19 0 -22 -5 -22 -45z"/>
</g>
</svg>
