<?xml version="1.0" standalone="no"?>
<!DOCTYPE svg PUBLIC "-//W3C//DTD SVG 20010904//EN"
 "http://www.w3.org/TR/2001/REC-SVG-20010904/DTD/svg10.dtd">
<svg version="1.0" xmlns="http://www.w3.org/2000/svg"
 width="500.000000pt" height="500.000000pt" viewBox="0 0 500.000000 500.000000"
 preserveAspectRatio="xMidYMid meet">

<g transform="translate(0.000000,500.000000) scale(0.100000,-0.100000)"
fill="#ffffff" stroke="none">
<path d="M2245 2773 c-27 -9 -52 -20 -55 -23 -3 -4 -19 -15 -36 -25 -49 -28
-100 -115 -120 -201 -14 -63 -14 -87 -5 -151 23 -157 87 -238 231 -290 40 -14
241 -18 268 -4 69 34 91 47 120 75 18 17 41 46 50 65 20 42 23 126 5 125 -7
-1 -38 -2 -68 -2 -50 -2 -55 -4 -55 -24 0 -55 -63 -108 -126 -108 -85 0 -124
70 -124 220 0 151 38 220 121 220 45 0 93 -37 104 -77 9 -38 20 -43 93 -43
l62 0 0 125 0 125 -64 0 c-48 0 -65 -4 -70 -15 -7 -19 -24 -19 -61 1 -45 25
-206 29 -270 7z"/>
<path d="M3115 2784 c-152 -36 -244 -112 -280 -231 -18 -59 -19 -195 -2 -243
19 -55 64 -125 97 -153 31 -27 92 -57 151 -76 46 -14 252 -14 298 1 119 38
183 87 227 175 27 52 29 65 29 172 0 98 -3 123 -22 162 -40 84 -104 140 -203
177 -35 13 -256 25 -295 16z m178 -154 c32 -25 47 -91 47 -203 -1 -152 -32
-217 -106 -217 -84 0 -113 55 -114 210 0 121 11 170 46 205 32 32 90 34 127 5z"/>
<path d="M240 2703 c0 -78 1 -78 33 -94 l32 -16 0 -164 0 -164 -32 -14 c-33
-15 -33 -15 -33 -88 l0 -73 210 0 210 0 0 75 0 76 -30 6 c-17 3 -35 14 -41 25
-6 12 -9 78 -7 168 3 135 5 151 23 164 11 9 28 16 38 16 15 0 17 11 17 80 l0
80 -210 0 -210 0 0 -77z"/>
<path d="M720 2650 l0 -130 64 0 64 0 7 45 c7 50 37 79 77 73 l23 -3 0 -185 0
-185 -32 -14 c-33 -15 -33 -15 -33 -88 l0 -73 210 0 210 0 0 74 0 74 -30 7
c-17 4 -35 15 -40 25 -11 20 -14 328 -4 354 9 24 57 20 82 -6 11 -13 22 -39
24 -58 l3 -35 68 -3 68 -3 -3 128 -3 128 -377 3 -378 2 0 -130z"/>
<path d="M1535 2757 c-4 -13 -5 -48 -3 -78 3 -46 6 -54 24 -57 50 -7 55 -27
52 -197 -3 -139 -5 -159 -20 -166 -10 -5 -26 -13 -35 -18 -15 -7 -18 -21 -18
-77 l0 -69 210 0 210 0 -3 55 c-4 81 -10 100 -32 100 -40 0 -50 35 -50 181 0
123 2 139 21 163 11 14 29 26 40 26 18 0 20 6 17 78 l-3 77 -202 3 -203 2 -5
-23z"/>
<path d="M3715 2757 c-4 -13 -5 -48 -3 -78 3 -47 6 -54 25 -57 13 -2 32 -15
43 -29 18 -23 20 -40 20 -160 0 -74 -5 -143 -10 -154 -6 -10 -26 -26 -45 -34
l-35 -14 0 -70 0 -71 150 0 150 0 0 70 c0 67 -1 71 -27 83 -16 6 -31 16 -35
22 -11 15 -10 273 2 280 11 7 50 -65 50 -93 0 -10 4 -22 8 -27 4 -6 16 -37 27
-70 10 -33 22 -64 25 -70 4 -5 20 -52 36 -103 l29 -92 89 2 89 3 15 45 c8 25
18 54 23 65 4 11 15 45 23 75 9 30 21 64 25 75 5 11 22 63 39 115 43 136 56
128 60 -35 3 -154 0 -170 -36 -187 -25 -12 -27 -18 -30 -86 l-3 -72 206 0 205
0 0 71 0 70 -34 14 c-18 8 -36 22 -40 30 -3 9 -6 81 -6 160 0 135 1 145 22
165 12 11 30 20 40 20 16 0 18 9 18 74 0 58 -3 75 -16 80 -9 3 -107 6 -218 6
l-202 0 -28 -92 c-16 -51 -35 -118 -43 -148 -9 -30 -17 -61 -19 -68 -2 -8 -12
-12 -21 -10 -13 2 -30 38 -60 128 -23 69 -47 140 -54 158 l-13 32 -218 0 -218
0 -5 -23z"/>
</g>
</svg>
